<?xml version="1.0" encoding="iso-8859-1"?>
<!-- Generator: Adobe Illustrator 19.0.0, SVG Export Plug-In . SVG Version: 6.00 Build 0)  -->
<svg version="1.1" id="Capa_1" xmlns="http://www.w3.org/2000/svg" xmlns:xlink="http://www.w3.org/1999/xlink" x="0px" y="0px"
	 viewBox="0 0 512 512" style="enable-background:new 0 0 512 512;" xml:space="preserve">
<g>
	<g>
		<path d="M403.66,210.549c-0.12-0.63-0.32-1.26-0.57-1.87c-0.25-0.6-0.56-1.18-0.92-1.72c-0.36-0.55-0.78-1.06-1.24-1.52
			c-0.46-0.46-0.97-0.88-1.52-1.25c-0.54-0.36-1.121-0.67-1.721-0.92c-0.609-0.25-1.239-0.44-1.88-0.57
			c-1.29-0.26-2.62-0.26-3.899,0c-0.641,0.13-1.271,0.32-1.88,0.57c-0.601,0.25-1.181,0.56-1.721,0.92
			c-0.55,0.37-1.06,0.79-1.52,1.25c-0.46,0.46-0.88,0.97-1.24,1.52c-0.36,0.54-0.67,1.12-0.92,1.72c-0.25,0.61-0.45,1.24-0.57,1.87
			c-0.13,0.65-0.2,1.31-0.2,1.96c0,0.65,0.07,1.31,0.2,1.95c0.12,0.64,0.32,1.27,0.57,1.87c0.25,0.61,0.56,1.19,0.92,1.73
			c0.36,0.55,0.78,1.06,1.24,1.52c0.46,0.46,0.97,0.88,1.52,1.24c0.54,0.36,1.12,0.67,1.721,0.92c0.609,0.25,1.239,0.44,1.88,0.57
			c0.639,0.13,1.3,0.2,1.949,0.2c0.651,0,1.311-0.07,1.95-0.2c0.641-0.13,1.271-0.32,1.88-0.57c0.601-0.25,1.181-0.56,1.721-0.92
			c0.55-0.36,1.06-0.78,1.52-1.24c0.46-0.46,0.88-0.97,1.24-1.52c0.36-0.54,0.67-1.12,0.92-1.73c0.25-0.6,0.45-1.23,0.57-1.87
			c0.13-0.64,0.199-1.3,0.199-1.95C403.859,211.859,403.79,211.199,403.66,210.549z"/>
	</g>
</g>
<g>
	<g>
		<path d="M134.412,92.35h-76c-5.523,0-10,4.477-10,10v76c0,5.523,4.477,10,10,10h76c5.523,0,10-4.477,10-10v-76
			C144.412,96.827,139.935,92.35,134.412,92.35z M124.412,168.35h-56v-56h56V168.35z"/>
	</g>
</g>
<g>
	<g>
		<path d="M134.412,220.979h-76c-5.523,0-10,4.477-10,10v76c0,5.523,4.477,10,10,10h76c5.523,0,10-4.478,10-10v-76
			C144.412,225.456,139.935,220.979,134.412,220.979z M124.412,296.979h-56v-56h56V296.979z"/>
	</g>
</g>
<g>
	<g>
		<path d="M134.412,349.608h-76c-5.523,0-10,4.477-10,10v76c0,5.523,4.477,10,10,10h76c5.523,0,10-4.477,10-10v-76
			C144.412,354.085,139.935,349.608,134.412,349.608z M124.412,425.608h-56v-56h56V425.608z"/>
	</g>
</g>
<g>
	<g>
		<path d="M110.554,140.349l1.65-1.65c3.905-3.905,3.905-10.237,0-14.142c-3.906-3.905-10.236-3.905-14.143,0.001l-1.649,1.649
			l-1.649-1.649c-3.904-3.905-10.234-3.905-14.143-0.001c-3.905,3.905-3.905,10.237,0,14.142l1.65,1.65l-1.65,1.65
			c-3.905,3.905-3.905,10.237,0,14.142c1.953,1.953,4.512,2.929,7.071,2.929c2.559,0,5.118-0.977,7.071-2.929l1.649-1.649
			l1.649,1.649c1.953,1.953,4.512,2.929,7.071,2.929c2.559,0,5.118-0.977,7.071-2.929c3.905-3.905,3.905-10.237,0-14.142
			L110.554,140.349z"/>
	</g>
</g>
<g>
	<g>
		<path d="M110.554,268.979l1.65-1.65c3.905-3.905,3.905-10.237,0-14.142c-3.906-3.905-10.236-3.905-14.143,0l-1.649,1.65
			l-1.649-1.65c-3.904-3.905-10.234-3.905-14.143,0c-3.905,3.905-3.905,10.237,0,14.142l1.65,1.65l-1.65,1.65
			c-3.905,3.905-3.905,10.237,0,14.142c1.953,1.953,4.512,2.929,7.071,2.929c2.559,0,5.118-0.977,7.071-2.929l1.649-1.65l1.649,1.65
			c1.953,1.953,4.512,2.929,7.071,2.929c2.559,0,5.118-0.977,7.071-2.929c3.905-3.905,3.905-10.237,0-14.142L110.554,268.979z"/>
	</g>
</g>
<g>
	<g>
		<path d="M509.071,162.252l-64.957-64.957c-1.876-1.875-4.419-2.929-7.071-2.929c-2.652,0-5.196,1.054-7.071,2.929l-39.557,39.558
			c-0.006,0.006-3.708,3.707-3.708,3.707v-18.167c0-0.005,0-0.01,0-0.016v-0.026c0-0.008,0-0.015,0-0.023
			c0-0.064-0.001-0.129-0.002-0.193c0-0.02-0.001-0.04-0.001-0.06c-0.002-0.063-0.004-0.126-0.007-0.188
			c-0.001-0.013-0.001-0.026-0.002-0.04c-0.004-0.072-0.008-0.143-0.013-0.215c-0.002-0.024-0.004-0.048-0.006-0.072
			c-0.004-0.049-0.008-0.097-0.013-0.146c-0.003-0.029-0.006-0.058-0.008-0.087c-0.005-0.049-0.011-0.098-0.016-0.147
			c-0.005-0.042-0.01-0.083-0.016-0.125c-0.006-0.048-0.013-0.095-0.02-0.143c-0.005-0.033-0.01-0.067-0.015-0.1
			c-0.006-0.037-0.012-0.074-0.018-0.111c-0.006-0.036-0.012-0.072-0.018-0.108c-0.007-0.039-0.015-0.079-0.022-0.118
			c-0.011-0.056-0.022-0.113-0.034-0.169c-0.008-0.036-0.015-0.073-0.023-0.109s-0.016-0.072-0.024-0.108
			c-0.008-0.036-0.017-0.071-0.026-0.107c-0.008-0.033-0.016-0.066-0.024-0.1c-0.016-0.064-0.033-0.127-0.051-0.19
			c-0.007-0.025-0.014-0.05-0.022-0.076c-0.013-0.045-0.026-0.091-0.039-0.136c-0.008-0.028-0.017-0.056-0.026-0.084
			c-0.014-0.046-0.029-0.093-0.044-0.139c-0.008-0.023-0.015-0.046-0.022-0.068c-0.023-0.068-0.046-0.135-0.07-0.202
			c-0.005-0.014-0.01-0.027-0.015-0.041c-0.02-0.057-0.042-0.114-0.063-0.17c-0.007-0.019-0.014-0.037-0.021-0.055
			c-0.023-0.06-0.047-0.121-0.072-0.18c-0.003-0.008-0.006-0.016-0.01-0.024c-0.03-0.073-0.061-0.146-0.093-0.218
			c0,0,0-0.001-0.001-0.001c-0.031-0.071-0.064-0.141-0.097-0.211c-0.003-0.006-0.006-0.013-0.009-0.019
			c-0.102-0.216-0.213-0.429-0.331-0.638c-0.001-0.002-0.002-0.004-0.004-0.006c-0.119-0.21-0.246-0.417-0.38-0.619
			c-0.001-0.002-0.003-0.004-0.004-0.007c-0.134-0.201-0.276-0.398-0.426-0.59c-0.002-0.003-0.005-0.006-0.007-0.009
			c-0.049-0.063-0.098-0.125-0.149-0.186c0,0-0.001-0.001-0.001-0.002c-0.103-0.125-0.209-0.248-0.318-0.37
			c-0.003-0.003-0.006-0.007-0.009-0.01c-0.052-0.058-0.106-0.115-0.16-0.172c-0.002-0.002-0.003-0.004-0.005-0.005
			c-0.056-0.059-0.113-0.118-0.172-0.176L275.474,6.976c-0.054-0.054-0.109-0.108-0.165-0.161c-0.012-0.011-0.023-0.022-0.035-0.033
			c-0.048-0.046-0.097-0.091-0.146-0.135c-0.007-0.007-0.015-0.014-0.022-0.02c-1.108-1.002-2.405-1.724-3.786-2.144
			c-0.005-0.002-0.01-0.003-0.016-0.005c-0.152-0.046-0.304-0.088-0.458-0.127c-0.006-0.002-0.012-0.003-0.018-0.004
			c-0.068-0.017-0.136-0.033-0.204-0.049c-0.013-0.003-0.026-0.006-0.039-0.009c-0.148-0.033-0.297-0.063-0.446-0.089
			c-0.016-0.003-0.031-0.005-0.047-0.008c-0.062-0.011-0.124-0.021-0.187-0.03c-0.014-0.002-0.027-0.004-0.041-0.006
			c-0.152-0.022-0.305-0.041-0.458-0.057c-0.012-0.001-0.025-0.002-0.037-0.004c-0.067-0.007-0.135-0.012-0.202-0.018
			c-0.011-0.001-0.021-0.002-0.032-0.002c-0.157-0.012-0.314-0.019-0.471-0.023c-0.009,0-0.017,0-0.026-0.001
			c-0.097-0.002-0.194-0.003-0.291-0.003H10c-5.523,0-10,4.477-10,10v483.904c0,5.523,4.477,10,10,10h366.707
			c5.522,0,10-4.477,10-10V298.758l122.364-122.364c1.875-1.876,2.929-4.419,2.929-7.071
			C512,166.671,510.946,164.127,509.071,162.252z M278.403,38.189l37.081,37.081l37.081,37.082h-74.162V38.189z M20,487.951V24.047
			h238.402v69.19h-68.605c-5.523,0-10,4.477-10,10c0,5.523,4.477,10,10,10h68.605v9.114c0,5.523,4.478,10,10,10h98.305v28.209
			l-0.591,0.591H189.797c-5.523,0-10,4.477-10,10c0,5.523,4.477,10,10,10h156.319l-47.914,47.914H189.797c-5.523,0-10,4.477-10,10
			c0,5.523,4.477,10,10,10h88.405l-47.914,47.914h-40.491c-5.523,0-10,4.477-10,10s4.477,10,10,10h20.491l-31.24,31.242
			c-1.367,1.367-2.309,3.101-2.71,4.993l-17.523,82.479c-0.704,3.312,0.316,6.755,2.71,9.149c1.895,1.895,4.447,2.929,7.071,2.929
			c0.691,0,1.388-0.072,2.078-0.218l82.479-17.522c1.892-0.402,3.626-1.343,4.993-2.71l108.56-108.56v169.19H20z M190.707,381.819
			l4.579-21.552l4.918-4.919c1.654,2.549,3.585,4.936,5.772,7.123c7.013,7.015,15.929,11.307,25.469,12.45
			c1.143,9.539,5.435,18.455,12.45,25.47c2.188,2.188,4.574,4.118,7.123,5.772l-4.919,4.919l-21.55,4.579L190.707,381.819z
			 M201.219,420.616l-19.642,4.173l4.173-19.641L201.219,420.616z M265.778,391.403c-2.876-1.172-5.501-2.913-7.741-5.154
			c-4.546-4.546-6.975-10.57-6.893-16.884L372.44,248.069c3.905-3.905,3.905-10.237,0-14.143c-3.906-3.905-10.236-3.905-14.142,0
			L237.002,355.223c-0.104,0.001-0.207,0.002-0.31,0.002c-6.201,0-12.104-2.425-16.575-6.897c-2.241-2.24-3.982-4.865-5.154-7.741
			l182.504-182.503l50.814,50.814L265.778,391.403z M462.423,194.758l-50.814-50.814l25.434-25.435l50.814,50.815L462.423,194.758z"
			/>
	</g>
</g>
<g>
</g>
<g>
</g>
<g>
</g>
<g>
</g>
<g>
</g>
<g>
</g>
<g>
</g>
<g>
</g>
<g>
</g>
<g>
</g>
<g>
</g>
<g>
</g>
<g>
</g>
<g>
</g>
<g>
</g>
</svg>
